{"title":"Dragonfly 2002 DVDrip English Klam","uid":6439411,"size":1449362580,"categoryP":"video","categoryS":"movies","magnet":"?xt=urn:btih:12711c72150c8348025bd56acfd217503deab4d7&amp;dn=Dragonfly+2002+DVDrip+English+Klam&amp;tr=udp%3A%2F%2Ftracker.openbittorrent.com%3A80&amp;tr=udp%3A%2F%2Fopen.demonii.com%3A1337&amp;tr=udp%3A%2F%2Ftracker.coppersurfer.tk%3A6969&amp;tr=udp%3A%2F%2Fexodus.desync.com%3A6969","seeders":1,"leechers":0,"uploader":"Klambake","files":-1,"time":1306937941,"description":"With: Kevin Costner, Joe Morton and Kathy Bates\n\nDr. Joe Darrow is een gerespecteerd hoofd van een eerste hulp afdeling. Wanneer zijn vrouw Emily omkomt tijdens een medische missie in Venezuela stort Joe zich volledig op zijn werk. Hij raakt er van overtuigd dat Emily met hem in contact probeert te komen door middel van de bijna-dood ervaringen van zijn patiÃƒÂ«nten. De mysterieuze libelles die hem achtervolgen herinneren hem aan haar.\n\nA grieving doctor is being contacted by his late wife through his patients near death experiences. \n\nGeneral:\n\nComplete name                    : Dragonfly\\Dragonfly.avi\nFormat                           : AVI\nFormat/Info                      : Audio Video Interleave\nFile size                        : 1.35 GiB\nDuration                         : 1h 40mn\nOverall bit rate                 : 1 931 Kbps\n\nVideo:\n\nFormat                           : MPEG-4 Visual\nFormat profile                   : Simple@L3\nFormat settings, BVOP            : No\nFormat settings, QPel            : No\nFormat settings, GMC             : No warppoints\nFormat settings, Matrix          : Default (H.263)\nCodec ID                         : XVID\nCodec ID/Hint                    : XviD\nDuration                         : 1h 40mn\nBit rate                         : 1 473 Kbps\nWidth                            : 720 pixels\nHeight                           : 304 pixels\nDisplay aspect ratio             : 2.35:1\nFrame rate                       : 25.000 fps\nColor space                      : YUV\nChroma subsampling               : 4:2:0\nBit depth                        : 8 bits\nScan type                        : Progressive\nBits/(Pixel*Frame)               : 0.269\nStream size                      : 1.03 GiB (76%)\nWriting library                  : XviD 1.1.2 (UTC 2006-11-01)\n\nAudio:\n\nFormat                           : AC-3\nFormat/Info                      : Audio Coding 3\nMode extension                   : CM (complete main)\nCodec ID                         : 2000\nDuration                         : 1h 40mn\nBit rate mode                    : Constant\nBit rate                         : 448 Kbps\nChannel(s)                       : 6 channels\nChannel positions                : Front: L C R, Side: L R, LFE\nSampling rate                    : 48.0 KHz\nBit depth                        : 16 bits\nStream size                      : 321 MiB (23%)\nAlignment                        : Aligned on interleaves\nInterleave, duration             : 32 ms (0.80 video frame)\nInterleave, preload duration     : 64 ms\n\n","torrent":{"xt":"urn:btih:12711c72150c8348025bd56acfd217503deab4d7","amp;dn":"Dragonfly+2002+DVDrip+English+Klam","amp;tr":["udp%3A%2F%2Ftracker.openbittorrent.com%3A80","udp%3A%2F%2Fopen.demonii.com%3A1337","udp%3A%2F%2Ftracker.coppersurfer.tk%3A6969","udp%3A%2F%2Fexodus.desync.com%3A6969"],"infoHash":"12711c72150c8348025bd56acfd217503deab4d7","infoHashBuffer":{"type":"Buffer","data":[18,113,28,114,21,12,131,72,2,91,213,106,207,210,23,80,61,234,180,215]},"announce":[],"urlList":[]}}